<?xml version="1.0" encoding="utf-8"?>
<!-- Generator: Adobe Illustrator 26.0.1, SVG Export Plug-In . SVG Version: 6.00 Build 0)  -->
<svg version="1.1" id="Layer_1" xmlns="http://www.w3.org/2000/svg" xmlns:xlink="http://www.w3.org/1999/xlink" x="0px" y="0px"
	 viewBox="0 0 2000 2000" style="enable-background:new 0 0 2000 2000;" xml:space="preserve">
<style type="text/css">
	.st0{fill:#E3233C;}
	.st1{fill:#50BBC5;}
	.st2{fill:#F5B419;}
	.st3{fill:#404041;}
	.st4{fill:#FFFFFF;}
</style>
<g>
	<image style="overflow:visible;" width="1290" height="1202" xlink:href="DF09E258.png"  transform="matrix(1 0 0 1 423 435)">
	</image>
	
		<image style="overflow:visible;opacity:0.2;" width="1711" height="143" xlink:href="DF09E259.png"  transform="matrix(1 0 0 1 221 1526)">
	</image>
	<path class="st0" d="M1670.7,1145.3c-0.6,3.9-1.2,7.7-1.9,11.6c-64,340.3-570.8,427-851,421.4C480,1571.5,304,1159.5,421.3,892
		C524.2,657.3,810,371.3,1147.9,378c295.9,5.9,489.4,367.9,518.7,623.8C1672.1,1049.5,1677.5,1098,1670.7,1145.3z"/>
	<path class="st1" d="M551.8,528.7c-67.7,55-124.4,120.5-156.4,191.5c-81.1,179.4-6.6,391.9,83.5,552.6
		c160.5,286.5,626.8,367.1,889.7,219.8c177.3-99.4,177.9-367.8,157.2-541.8c-20.3-170.3-63.8-363.4-178.9-496.5
		c-131-151.5-329.7-120-499.2-77.2C750.2,401.6,641.3,456,551.8,528.7z"/>
	<polygon class="st2" points="1878.1,1159.9 85,1353.7 210.1,800.9 1854.4,885.5 	"/>
	<polygon class="st3" points="1790.1,1277 128,1227.4 291.9,703.1 1861.5,998 	"/>
	<image style="overflow:visible;" width="1664" height="91" xlink:href="DF09E25F.png"  transform="matrix(1 0 0 1 127 1227)">
	</image>
	<g>
		<image style="overflow:visible;" width="265" height="264" xlink:href="DF09E25A.png"  transform="matrix(1 0 0 1 1491 329)">
		</image>
		
			<ellipse transform="matrix(0.1425 -0.9898 0.9898 0.1425 937.8765 1971.8904)" class="st0" cx="1607" cy="444.6" rx="131.7" ry="131.7"/>
	</g>
	<g>
		<image style="overflow:visible;" width="128" height="128" xlink:href="DF09E25B.png"  transform="matrix(1 0 0 1 469 472)">
		</image>
		
			<ellipse transform="matrix(0.1934 -0.9811 0.9811 0.1934 -90.948 928.5867)" class="st2" cx="519.3" cy="519.6" rx="63.7" ry="63.7"/>
	</g>
	<path class="st1" d="M519.3,1488c0,17.3-14,31.2-31.2,31.2c-17.3,0-31.2-14-31.2-31.2s14-31.2,31.2-31.2
		C505.3,1456.8,519.3,1470.8,519.3,1488z"/>
</g>
<g>
	<g>
		<path class="st4" d="M553.5,696.9c4.8,3.4,12.5,7.2,20.8,8.3c8.9,1.2,14.1-1.8,14.9-7.4c0.7-5.3-2.9-9-12.7-14.1
			c-13.6-6.9-21.8-16.1-20-28.6c2-14.6,15.8-24.1,36-21.3c9.7,1.4,16.5,4.4,21.3,7.4l-6.5,15c-3.2-2.1-9-5.4-17.4-6.6
			c-8.4-1.2-13,2.1-13.6,6.5c-0.8,5.5,3.7,8.6,14.2,14.3c14.4,7.7,20.4,16.6,18.7,28.7c-2,14.4-14.8,25.1-38.3,21.8
			c-9.8-1.4-19.1-5.2-23.6-8.6L553.5,696.9z"/>
		<path class="st4" d="M630.7,641.7c6.1-0.2,14.6,0.2,26.5,1.9c12,1.7,20.2,5.1,25.3,10.5c4.9,5.1,7.6,12.7,6.4,21.1
			c-1.2,8.4-5,15.1-10.7,19.3c-7.5,5.3-17.7,6.7-29.1,5.2c-2.5-0.4-4.8-0.8-6.6-1.3l-4.3,30.7l-19.2-2.7L630.7,641.7z M644.5,683.3
			c1.6,0.6,3.6,1,6.4,1.4c10.3,1.4,17.4-2.9,18.6-11.7c1.1-7.9-3.7-13.4-13.4-14.7c-3.9-0.6-6.7-0.5-8.1-0.3L644.5,683.3z"/>
		<path class="st4" d="M749,707.4l-31.6-4.4l-2.8,20.4l35.2,4.9l-2.2,15.9l-54.7-7.6l11.9-85.7l52.9,7.4l-2.2,15.9l-33.5-4.6
			l-2.5,17.8l31.6,4.4L749,707.4z"/>
		<path class="st4" d="M824.3,752.3c-3.8,1.3-12.1,2.1-22.5,0.6c-29.7-4.1-42.4-24.7-39-49.1c4.1-29.3,27.2-42.6,53.2-39
			c10,1.4,17.4,4.5,20.6,6.7l-6.1,14.9c-3.7-2.2-9-4.5-15.8-5.4c-15.4-2.1-28.6,5.5-31.3,24.6c-2.4,17.2,6.3,29.4,23.6,31.8
			c5.9,0.8,12.5,0.4,16.5-0.5L824.3,752.3z"/>
		<path class="st4" d="M868,673.4l-11.9,85.8l-19.5-2.7l11.9-85.7L868,673.4z"/>
		<path class="st4" d="M896,742.2l-9.2,21.2l-20.1-2.8l38.1-82.1l25.4,3.5l14.7,89.4l-20.9-2.9l-3.6-22.9L896,742.2z M919.8,730.8
			l-2.8-18.9c-0.8-5.3-1.5-11.9-2-17.1l-0.3,0c-2,4.9-4.2,11.2-6.2,16l-7.6,17.5L919.8,730.8z"/>
		<path class="st4" d="M968.4,687.3l19.5,2.7l-9.7,69.5l34.1,4.7l-2.3,16.3l-53.6-7.4L968.4,687.3z"/>
		<path class="st4" d="M1131.9,752.7c-3.9,28.1-23.3,42.8-48.4,39.3c-25.4-3.5-37.7-24.8-34.3-49.2c3.6-25.7,22.7-42.6,48-39.1
			C1123.5,707.4,1135.2,729.1,1131.9,752.7z M1069.7,745.3c-2.3,16.8,3.9,29.7,16.9,31.5c13.1,1.8,22.3-9.6,24.7-26.3
			c2.1-15.4-3.4-29.7-16.8-31.5C1081.4,717.2,1072.1,728.6,1069.7,745.3z"/>
		<path class="st4" d="M1150.5,712.5l52.4,7.3l-2.2,15.9l-33-4.6l-2.7,19.6l30.8,4.3l-2.2,15.8l-30.8-4.3l-4.8,34.5l-19.5-2.7
			L1150.5,712.5z"/>
		<path class="st4" d="M1217.5,721.8l52.4,7.3l-2.2,15.9l-33-4.6L1232,760l30.8,4.3l-2.2,15.8l-30.8-4.3l-4.8,34.5l-19.5-2.7
			L1217.5,721.8z"/>
		<path class="st4" d="M1329,787.7l-31.6-4.4l-2.8,20.4l35.2,4.9l-2.2,15.9l-54.7-7.6l11.9-85.7l52.9,7.4l-2.2,15.9l-33.5-4.6
			l-2.5,17.8l31.6,4.4L1329,787.7z"/>
		<path class="st4" d="M1352.6,741.6c6.4-0.1,15.8,0.4,26.1,1.8c12.7,1.8,21.4,4.9,26.8,10.6c4.5,4.8,6.5,11.1,5.4,19
			c-1.5,10.9-10.3,17.4-18.1,19l-0.1,0.4c5.6,3.2,8.2,9.4,9.2,17.6c1.3,10,2.4,21.6,3.6,25.1l-19.8-2.8c-1.1-2.6-2.1-9.9-3.2-20.8
			c-0.8-11-4.1-14.4-12-15.7l-5.9-0.8l-4.7,33.7l-19.2-2.7L1352.6,741.6z M1366.7,781.2l7.6,1.1c9.7,1.4,16.1-2.7,17.1-10.2
			c1.1-7.9-3.7-12.6-12.6-13.9c-4.7-0.7-7.4-0.6-8.9-0.6L1366.7,781.2z"/>
	</g>
	<g>
		<path class="st4" d="M469.3,884.6c11.6-0.9,34.7,0,56.2,2.6c26.3,3.1,42.1,7.5,55,17.4c12.5,8.6,20.6,22.8,18.5,40
			c-2,17-13.8,31.7-36.2,37.1l-0.1,0.6c21.1,8.5,35.3,26.8,32.4,51.4c-2,17.3-11.5,29.9-24.6,38.1c-15.2,9.4-39.1,12.9-77,8.5
			c-21.2-2.5-36.9-5.8-46.4-8.3L469.3,884.6z M493.6,1047.2c4.2,1.1,9.3,1.7,16.6,2.5c19.5,2.3,37.6-3,40-23.1
			c2.3-19.2-14.1-28.9-35.6-31.4l-14.7-1.7L493.6,1047.2z M503.5,962.6l14.1,1.7c22.6,2.6,35.9-5.3,37.6-19.4
			c1.7-14.4-8.5-23.4-28-25.7c-9.3-1.1-14.8-1.2-18.5-1L503.5,962.6z"/>
		<path class="st4" d="M683.8,907.2l-22.3,190.7l-43.3-5.1l22.3-190.7L683.8,907.2z"/>
		<path class="st4" d="M859.1,1112.2c-13.8,3-39.7,6.2-64.9,3.3c-34.8-4.1-59-15.8-74.5-34.8c-15.6-18.5-22.3-44.5-18.7-72.5
			c7.7-63.3,58.1-94.2,120.6-86.8c24.6,2.9,43,9.9,51.8,15.5l-13.1,33.5c-9.9-5.8-22.5-11-43.5-13.4c-35.9-4.2-65.5,13-70.3,54.3
			c-4.6,39.3,17.3,65.4,52.6,69.6c9.9,1.2,18,1,21.6-0.3l4.7-39.9l-29.4-3.4l3.9-33.7l71,8.3L859.1,1112.2z"/>
		<path class="st4" d="M955.6,1087.3c10.9,7.3,28,15.3,46.4,17.5c19.8,2.3,31.2-4.7,32.7-17.1c1.4-11.9-6.9-19.7-28.8-30.6
			c-30.4-14.7-49-34.7-45.7-62.4c3.8-32.5,33.9-54.3,78.9-49c21.5,2.5,36.8,8.9,47.5,15.3l-13.7,33.7c-7.2-4.6-20.2-11.5-38.8-13.7
			c-18.7-2.2-28.7,5.2-29.9,15.1c-1.4,12.2,8.7,18.8,32.2,31c32.2,16.4,46,35.8,42.9,62.7c-3.8,32-31.6,56.3-83.9,50.1
			c-21.8-2.6-42.6-10.7-52.7-17.9L955.6,1087.3z"/>
		<path class="st4" d="M1151.9,1105.7l-19.3,47.4l-44.7-5.2l80.6-183.9l56.6,6.6l36.8,197.6l-46.4-5.4l-9-50.7L1151.9,1105.7z
			 M1204.1,1079.2l-7.1-41.9c-2.1-11.7-3.8-26.3-5.3-37.9l-0.6-0.1c-4.2,11-8.7,25.1-13.1,35.8l-16.1,39.1L1204.1,1079.2z"/>
		<path class="st4" d="M1309.7,980.5l43.3,5.1l-18.1,154.5l75.8,8.9l-4.2,36.2l-119.1-14L1309.7,980.5z"/>
		<path class="st4" d="M1554.9,1120.8l-70.2-8.2l-5.3,45.3l78.4,9.2l-4.2,35.4l-121.7-14.3l22.3-190.7l117.7,13.8l-4.1,35.4
			l-74.4-8.7l-4.6,39.6l70.2,8.2L1554.9,1120.8z"/>
	</g>
</g>
</svg>
